<svg width="13" height="13" viewBox="0 0 13 13" fill="none" xmlns="http://www.w3.org/2000/svg">
<path d="M6.5 12.5236H6.49125C4.87687 12.4936 0.21875 8.28489 0.21875 4.29864C0.21875 2.38364 1.79687 0.702393 3.59562 0.702393C5.02687 0.702393 5.98937 1.68989 6.49937 2.40864C7.00812 1.69114 7.97062 0.702393 9.4025 0.702393C11.2025 0.702393 12.78 2.38364 12.78 4.29927C12.78 8.28427 8.12125 12.493 6.50687 12.5224H6.5V12.5236ZM3.59625 1.64052C2.29625 1.64052 1.15687 2.88302 1.15687 4.29989C1.15687 7.88739 5.55312 11.5474 6.50062 11.5861C7.44937 11.5474 11.8444 7.88802 11.8444 4.29989C11.8444 2.88302 10.705 1.64052 9.405 1.64052C7.825 1.64052 6.9425 3.47552 6.935 3.49364C6.79125 3.84489 6.2125 3.84489 6.06812 3.49364C6.05937 3.47489 5.1775 1.64052 3.59687 1.64052H3.59625Z" fill="#657786"/>
</svg>
